<?xml version="1.0" standalone="no"?>
<svg xmlns:xlink="http://www.w3.org/1999/xlink" id="wave" style="transform:rotate(0deg); transition: 0.3s" viewBox="0 0 1440 400" version="1.1" xmlns="http://www.w3.org/2000/svg"><defs><linearGradient id="sw-gradient-0" x1="0" x2="0" y1="1" y2="0"><stop stop-color="rgba(82, 178, 219, 1)" offset="0%"/><stop stop-color="rgba(237, 69, 100, 1)" offset="100%"/></linearGradient></defs><path style="transform:translate(0, 0px); opacity:1" fill="url(#sw-gradient-0)" d="M0,80L60,93.3C120,107,240,133,360,166.7C480,200,600,240,720,226.7C840,213,960,147,1080,133.3C1200,120,1320,160,1440,146.7C1560,133,1680,67,1800,60C1920,53,2040,107,2160,120C2280,133,2400,107,2520,113.3C2640,120,2760,160,2880,200C3000,240,3120,280,3240,253.3C3360,227,3480,133,3600,140C3720,147,3840,253,3960,286.7C4080,320,4200,280,4320,220C4440,160,4560,80,4680,100C4800,120,4920,240,5040,246.7C5160,253,5280,147,5400,106.7C5520,67,5640,93,5760,106.7C5880,120,6000,120,6120,106.7C6240,93,6360,67,6480,93.3C6600,120,6720,200,6840,253.3C6960,307,7080,333,7200,333.3C7320,333,7440,307,7560,293.3C7680,280,7800,280,7920,293.3C8040,307,8160,333,8280,293.3C8400,253,8520,147,8580,93.3L8640,40L8640,400L8580,400C8520,400,8400,400,8280,400C8160,400,8040,400,7920,400C7800,400,7680,400,7560,400C7440,400,7320,400,7200,400C7080,400,6960,400,6840,400C6720,400,6600,400,6480,400C6360,400,6240,400,6120,400C6000,400,5880,400,5760,400C5640,400,5520,400,5400,400C5280,400,5160,400,5040,400C4920,400,4800,400,4680,400C4560,400,4440,400,4320,400C4200,400,4080,400,3960,400C3840,400,3720,400,3600,400C3480,400,3360,400,3240,400C3120,400,3000,400,2880,400C2760,400,2640,400,2520,400C2400,400,2280,400,2160,400C2040,400,1920,400,1800,400C1680,400,1560,400,1440,400C1320,400,1200,400,1080,400C960,400,840,400,720,400C600,400,480,400,360,400C240,400,120,400,60,400L0,400Z"/></svg>