<?xml version="1.0" standalone="no"?>
<svg xmlns:xlink="http://www.w3.org/1999/xlink" id="wave" style="transform:rotate(0deg); transition: 0.3s" viewBox="0 0 1440 310" version="1.1" xmlns="http://www.w3.org/2000/svg"><defs><linearGradient id="sw-gradient-0" x1="0" x2="0" y1="1" y2="0"><stop stop-color="rgba(255, 255, 0, 1)" offset="0%"/><stop stop-color="rgba(82, 178, 219, 1)" offset="100%"/></linearGradient></defs><path style="transform:translate(0, 0px); opacity:1" fill="url(#sw-gradient-0)" d="M0,124L24,124C48,124,96,124,144,149.8C192,176,240,227,288,217C336,207,384,134,432,98.2C480,62,528,62,576,67.2C624,72,672,83,720,108.5C768,134,816,176,864,191.2C912,207,960,196,1008,196.3C1056,196,1104,207,1152,222.2C1200,238,1248,258,1296,263.5C1344,269,1392,258,1440,253.2C1488,248,1536,248,1584,206.7C1632,165,1680,83,1728,41.3C1776,0,1824,0,1872,46.5C1920,93,1968,186,2016,196.3C2064,207,2112,134,2160,134.3C2208,134,2256,207,2304,196.3C2352,186,2400,93,2448,62C2496,31,2544,62,2592,87.8C2640,114,2688,134,2736,129.2C2784,124,2832,93,2880,87.8C2928,83,2976,103,3024,118.8C3072,134,3120,145,3168,124C3216,103,3264,52,3312,67.2C3360,83,3408,165,3432,206.7L3456,248L3456,310L3432,310C3408,310,3360,310,3312,310C3264,310,3216,310,3168,310C3120,310,3072,310,3024,310C2976,310,2928,310,2880,310C2832,310,2784,310,2736,310C2688,310,2640,310,2592,310C2544,310,2496,310,2448,310C2400,310,2352,310,2304,310C2256,310,2208,310,2160,310C2112,310,2064,310,2016,310C1968,310,1920,310,1872,310C1824,310,1776,310,1728,310C1680,310,1632,310,1584,310C1536,310,1488,310,1440,310C1392,310,1344,310,1296,310C1248,310,1200,310,1152,310C1104,310,1056,310,1008,310C960,310,912,310,864,310C816,310,768,310,720,310C672,310,624,310,576,310C528,310,480,310,432,310C384,310,336,310,288,310C240,310,192,310,144,310C96,310,48,310,24,310L0,310Z"/><defs><linearGradient id="sw-gradient-1" x1="0" x2="0" y1="1" y2="0"><stop stop-color="rgba(255, 255, 0, 1)" offset="0%"/><stop stop-color="rgba(237, 69, 100, 1)" offset="100%"/></linearGradient></defs><path style="transform:translate(0, 50px); opacity:0.9" fill="url(#sw-gradient-1)" d="M0,217L24,217C48,217,96,217,144,191.2C192,165,240,114,288,87.8C336,62,384,62,432,72.3C480,83,528,103,576,98.2C624,93,672,62,720,82.7C768,103,816,176,864,217C912,258,960,269,1008,227.3C1056,186,1104,93,1152,82.7C1200,72,1248,145,1296,175.7C1344,207,1392,196,1440,160.2C1488,124,1536,62,1584,46.5C1632,31,1680,62,1728,108.5C1776,155,1824,217,1872,211.8C1920,207,1968,134,2016,87.8C2064,41,2112,21,2160,15.5C2208,10,2256,21,2304,41.3C2352,62,2400,93,2448,134.3C2496,176,2544,227,2592,217C2640,207,2688,134,2736,87.8C2784,41,2832,21,2880,25.8C2928,31,2976,62,3024,72.3C3072,83,3120,72,3168,93C3216,114,3264,165,3312,175.7C3360,186,3408,155,3432,139.5L3456,124L3456,310L3432,310C3408,310,3360,310,3312,310C3264,310,3216,310,3168,310C3120,310,3072,310,3024,310C2976,310,2928,310,2880,310C2832,310,2784,310,2736,310C2688,310,2640,310,2592,310C2544,310,2496,310,2448,310C2400,310,2352,310,2304,310C2256,310,2208,310,2160,310C2112,310,2064,310,2016,310C1968,310,1920,310,1872,310C1824,310,1776,310,1728,310C1680,310,1632,310,1584,310C1536,310,1488,310,1440,310C1392,310,1344,310,1296,310C1248,310,1200,310,1152,310C1104,310,1056,310,1008,310C960,310,912,310,864,310C816,310,768,310,720,310C672,310,624,310,576,310C528,310,480,310,432,310C384,310,336,310,288,310C240,310,192,310,144,310C96,310,48,310,24,310L0,310Z"/></svg>