<?xml version="1.0" encoding="iso-8859-1"?>
<!-- Generator: Adobe Illustrator 19.0.0, SVG Export Plug-In . SVG Version: 6.00 Build 0)  -->
<svg version="1.1" id="Layer_1" xmlns="http://www.w3.org/2000/svg" xmlns:xlink="http://www.w3.org/1999/xlink" x="0px" y="0px"
	 viewBox="0 0 512 512" style="enable-background:new 0 0 512 512;" xml:space="preserve">
<g transform="translate(-1)">
	<path style="fill:#F9D70B;" d="M452.363,143.194c-68.414-44.774-176.154-23.578-253.952,54.219
		c-77.806,77.806-99.001,185.565-54.201,253.978l-8.218,8.183c-10.346,10.346-10.346,27.109,0,37.455
		c10.346,10.346,27.11,10.346,37.455,0l8.201-8.21c68.423,44.782,176.163,23.587,253.961-54.21
		c77.806-77.806,99.001-185.565,54.201-253.978l8.218-8.192c10.346-10.337,10.346-27.11,0-37.447
		c-10.337-10.346-27.109-10.346-37.447,0L452.363,143.194z"/>
	<path style="fill:#F4C44E;" d="M198.411,197.412c57.344-57.344,130.931-83.818,193.077-75.9
		c-2.825-22.166-9.922-42.911-21.698-60.902l8.218-8.192c10.337-10.337,10.337-27.11,0-37.447c-10.346-10.346-27.11-10.346-37.455,0
		l-8.21,8.201C263.921-21.601,156.18-0.405,78.391,77.392C0.585,155.198-20.61,262.948,24.19,331.371l-8.218,8.183
		c-10.346,10.346-10.346,27.11,0,37.455c10.337,10.337,27.11,10.337,37.447,0l8.21-8.21c17.982,11.776,38.727,18.865,60.884,21.689
		C114.593,328.343,141.067,254.756,198.411,197.412"/>
	<g>
		<path style="fill:#FFFFFF;" d="M186.378,335.448c-4.882,0-8.828-3.955-8.828-8.828c0-87.614,79.201-158.897,176.552-158.897
			c4.882,0,8.828,3.955,8.828,8.828c0,4.873-3.946,8.828-8.828,8.828c-87.614,0-158.897,63.364-158.897,141.241
			C195.206,331.493,191.26,335.448,186.378,335.448"/>
		<path style="fill:#FFFFFF;" d="M71.62,211.862c-4.882,0-8.828-3.955-8.828-8.828c0-87.614,79.201-158.897,176.552-158.897
			c4.882,0,8.828,3.955,8.828,8.828s-3.946,8.828-8.828,8.828c-87.614,0-158.897,63.364-158.897,141.241
			C80.447,207.907,76.501,211.862,71.62,211.862"/>
	</g>
</g>
<g>
</g>
<g>
</g>
<g>
</g>
<g>
</g>
<g>
</g>
<g>
</g>
<g>
</g>
<g>
</g>
<g>
</g>
<g>
</g>
<g>
</g>
<g>
</g>
<g>
</g>
<g>
</g>
<g>
</g>
</svg>
