<?xml version="1.0" standalone="no"?>
<svg xmlns:xlink="http://www.w3.org/1999/xlink" id="wave" style="transform:rotate(180deg); transition: 0.3s" viewBox="0 0 1440 400" version="1.1" xmlns="http://www.w3.org/2000/svg"><defs><linearGradient id="sw-gradient-0" x1="0" x2="0" y1="1" y2="0"><stop stop-color="rgba(237, 69, 100, 1)" offset="0%"/><stop stop-color="rgba(237, 69, 100, 1)" offset="100%"/></linearGradient></defs><path style="transform:translate(0, 0px); opacity:1" fill="url(#sw-gradient-0)" d="M0,80L21.8,93.3C43.6,107,87,133,131,166.7C174.5,200,218,240,262,226.7C305.5,213,349,147,393,133.3C436.4,120,480,160,524,146.7C567.3,133,611,67,655,60C698.2,53,742,107,785,120C829.1,133,873,107,916,113.3C960,120,1004,160,1047,200C1090.9,240,1135,280,1178,253.3C1221.8,227,1265,133,1309,140C1352.7,147,1396,253,1440,286.7C1483.6,320,1527,280,1571,220C1614.5,160,1658,80,1702,100C1745.5,120,1789,240,1833,246.7C1876.4,253,1920,147,1964,106.7C2007.3,67,2051,93,2095,106.7C2138.2,120,2182,120,2225,106.7C2269.1,93,2313,67,2356,93.3C2400,120,2444,200,2487,253.3C2530.9,307,2575,333,2618,333.3C2661.8,333,2705,307,2749,293.3C2792.7,280,2836,280,2880,293.3C2923.6,307,2967,333,3011,293.3C3054.5,253,3098,147,3120,93.3L3141.8,40L3141.8,400L3120,400C3098.2,400,3055,400,3011,400C2967.3,400,2924,400,2880,400C2836.4,400,2793,400,2749,400C2705.5,400,2662,400,2618,400C2574.5,400,2531,400,2487,400C2443.6,400,2400,400,2356,400C2312.7,400,2269,400,2225,400C2181.8,400,2138,400,2095,400C2050.9,400,2007,400,1964,400C1920,400,1876,400,1833,400C1789.1,400,1745,400,1702,400C1658.2,400,1615,400,1571,400C1527.3,400,1484,400,1440,400C1396.4,400,1353,400,1309,400C1265.5,400,1222,400,1178,400C1134.5,400,1091,400,1047,400C1003.6,400,960,400,916,400C872.7,400,829,400,785,400C741.8,400,698,400,655,400C610.9,400,567,400,524,400C480,400,436,400,393,400C349.1,400,305,400,262,400C218.2,400,175,400,131,400C87.3,400,44,400,22,400L0,400Z"/></svg>